<?xml version="1.0" encoding="UTF-8"?>
<svg id="uuid-cb324cc9-a406-4afb-958d-6c4f01ef3abd" data-name="Layer 1" xmlns="http://www.w3.org/2000/svg" viewBox="0 0 609.16 409.93">
  <defs>
    <style>
      .uuid-dbcbd5a1-3972-4a60-8688-778f5cf42256 {
        fill: #000;
        stroke-width: 0px;
      }
    </style>
  </defs>
  <path class="uuid-dbcbd5a1-3972-4a60-8688-778f5cf42256" d="M90.27,258.9c14.7,0,29.7-3.9,42.3-11.4,14.56,13.67,33.25,26.45,69.18,26.69,7.69,8.57,18.99,13.04,32.53,13.04,16.5,0,27.3-12,33.6-23.1,1.5,14.7,11.4,23.1,28.8,23.1,5.39,0,9.32-1.5,10.41-1.91,7.56-2.8,12.36-8,15.05-11.76,7.14,8.09,18.98,13.67,35.43,13.67,24.83,0,44.39-12.06,52.56-30.05,2.4,15.89,16.93,30.05,43.14,30.05s45.59-12.82,53.27-31.73c4.26,19.52,20.15,31.73,48.02,31.73,46.5,0,54.6-39.6,54.6-39.6l-5.4-2.4c0,.3-10.8,35.1-42.6,35.1-11.7,0-21.9-7.2-21.9-26.4,0-6,.3-11.7.6-17.1,43.2-.3,68.7-13.2,68.7-38.7,0-18.3-10.8-30.3-38.1-30.3-32,0-55.3,18.79-62.64,52.22-6.37-24.49-24.86-33.24-24.86-66.02h-7.2s-8.4,11.1-8.4,27.6v1.2c-3.94,4.33-9.05,9.03-15.53,13.31-15.8,10.44-32.08,13.3-43.24,13.92-7.92-17.63-21.33-28.11-21.33-56.04h-7.2s-8.4,11.1-8.4,27.6v1.2c-3.91,4.29-9.01,9.01-15.53,13.31-16.28,10.74-32.95,13.31-43.46,13.81l7.69-42.12s-13.8,2.7-36.9,2.7c-1.5,7.2-2.4,12.3-3.3,18-4.2-12-12.9-20.7-29.1-20.7-4.03,0-7.93.37-11.68,1.07,26.16-14.29,45.58-37.26,45.58-74.09,0-30-18.3-63.3-87.6-64.5,2.4-12.9,4.2-21,15.3-22.5V0c-25.5,0-43.2,10.8-52.5,31.5C71.97,37.5,22.46,69,22.46,120c0,12.6,4.2,23.1,12.6,30.9,13.2,12.9,33,16.8,52.5,16.8v-6.3c-.3.3-31.5,1.5-48.6-15-6.6-6.6-10.8-15.6-10.8-26.4,0-46.5,47.1-76.2,129.6-82.5-2.1,5.4-3.3,11.4-4.2,18,0,0-11.79,68.47-21.79,124.54-1.39.09-2.78.19-4.2.32-22.7,2-63.34,5.4-94.36,37.93-3.49,3.66-33.22,37.46-33.22,87.41,0,13.87,1.45,43.17,23.68,64.66,19.99,19.33,45.44,21.32,53.95,21.98,4.98.38,24.13,1.46,45.15-7.78,7.73-3.4,15.73-7.03,22.57-15.57,1.66-2.08,3.05-4.2,4.23-6.3,5.36-8.49,8.03-19.26,8.03-31.34,0-4.25-.64-8.13-1.89-11.59,2.22-4.45,6.26-10.28,12.98-12.47,1-.33,2.1-.59,3.31-.74l-13.2,73.8h24l7.2-40c5.2-19.6,12-31.8,20.8-31.8,5.4,0,8.2,2.2,8.2,8.6,0,11.8-7.2,35-7.2,48.6,0,10.6,6.2,16.4,18.2,16.4,13,0,16.8-7.2,16.8-7.2l-3-2.4s-4.8,5.6-10,5.6c.4-11.4,3.8-24.2,6-35.2,5.4-21.2,12.2-34.4,21.4-34.4,5.4,0,8.2,2.2,8.2,8.6,0,11.8-7.2,35-7.2,48.6,0,10.6,6.2,16.4,18.2,16.4,2.53,0,8.24.2,13.27-3.6.98-.74,2.91-2.36,4.81-5.59,3.71-6.3,3.62-15.86,3.28-34.72-.11-6.1-.13-7.05.16-8.94,1.49-9.86,6.95-15.96,9.28-18.55,2.27-2.53,4.28-4.01,6.68-4.86,1.05-.37,2.16-.62,3.32-.74l-18.8,104.8h23.8l6-32.2c2.8,2.2,7.4,4.2,14.6,4.2,16.84,0,30.78-7.38,38.75-20.95,2.73,13.02,12.91,21.15,30.65,21.15,21.54,0,35.64-10.16,42.37-25.97-.1.88-.17,1.79-.17,2.77,0,11.8,9.8,23.2,29,23.2,14.62,0,26.5-6.28,32.83-16.01,4.31,9.98,14.38,16.01,30.37,16.01,31,0,36.4-26.4,36.4-26.4l-3.6-1.6c0,.2-7.2,23.4-28.4,23.4-7.8,0-14.6-4.8-14.6-17.6,0-4,.2-7.8.4-11.4,28.8-.2,45.8-8.8,45.8-25.8,0-12.2-7.2-20.2-25.4-20.2s-33.49,10.01-39.84,28.03c-5.29-11.68-14.16-18.68-14.16-37.23h-4.8s-5.6,7.4-5.6,18.4v.8c-2.64,2.83-6.05,5.95-10.35,8.87-8.56,5.81-17.05,8.38-23.26,9.57-.14-17.2-10.74-28.45-31.39-28.45s-33.44,8.2-40.02,19.64c-2.91-12.13-12.05-19.64-26.98-19.64-11.2,0-18.2,7.8-22.4,15-.6-10.4-7.4-16.4-19.2-16.4-2.46,0-4.78.44-6.93,1.27-2.23.86-4.86,2.39-8.07,5.93-5.16,5.7-11.36,16.12-11.21,29.64.03,2.69.27,1.51.62,6.84.88,13.51,1.54,22.07-3.41,27.71-3.03,3.45-7.07,4.91-10,5.6.8-17.2,8-37.8,8-50.4,0-15.8-9.4-25.2-25-25.2-14.6,0-21.2,10.4-25.6,23.2-.8-14.6-10-23.2-24.8-23.2-12.6,0-19.2,7.8-23.6,18.2v-.6c0-11.2-6.8-17.6-19.2-17.6-.45,0-3.66.11-6.94,1.27-6.12,2.18-10.35,7.32-13.11,12.1-4.72-8.39-14.01-13.37-27.75-13.37-38.4,0-47,26.6-47,50.8,0,16.78,9.68,27.98,29.21,28.75-9.25,2.69-19.35,3.37-28.92,1.31-36.94-7.97-49.31-52.51-51.3-59.69-11.01-39.64,7.81-73.49,17.51-87.49,1.54,12.75,16.47,22.68,44.56,22.68ZM579.16,175.33c14.1,0,21.9,9.9,21.9,22.8,0,18.9-15.6,31.5-60.3,31.8,5.1-38.4,22.8-54.6,38.4-54.6ZM451.69,205.03c6.84-4.23,12.19-8.94,16.28-13.2,1.8,14.4,6.9,25.2,6.9,43.8,0,28.8-8.7,43.8-29.7,43.8-8.1,0-16.5-3-21-9.6,2.1.6,3.9,1.2,8.1,1.2,12,0,20.4-9.9,20.4-21.9s-8.7-20.7-20.7-20.7c-6.31,0-13.3,2.3-17.72,8.3-.09-7.5-1.16-13.74-2.83-19.19,10.33-.63,25.32-3.26,40.27-12.52ZM311.51,216.36c10.48.27,27.61-1.12,44.48-11.34,6.91-4.18,12.26-8.93,16.28-13.2,1.8,14.4,6.9,25.2,6.9,43.8,0,28.8-8.7,43.8-29.7,43.8-8.1,0-16.5-3-21-9.6,2.1.6,3.9,1.2,8.1,1.2,12,0,20.4-9.9,20.4-21.9s-8.7-20.7-20.7-20.7c-10.2,0-22.2,6-22.2,24,0,5.39,1.37,10.71,4.07,15.52-2.04,3.7-6.23,9.61-13.5,12.17-1.74.61-3.42.95-4.97,1.11l11.84-64.86ZM567,307.53c9.4,0,14.6,6.6,14.6,15.2,0,12.6-10.4,21-40.2,21.2,3.4-25.6,15.2-36.4,25.6-36.4ZM497.2,318.53c1.2,9.6,4.6,16.8,4.6,29.2,0,19.2-5.8,29.2-19.8,29.2-5.4,0-11-2-14-6.4,1.4.4,2.6.8,5.4.8,8,0,13.6-6.6,13.6-14.6s-5.8-13.8-13.8-13.8c-4.39,0-9.27,1.69-12.19,6.1,1.09-4.08,1.76-8.44,2.04-13.01,6.13-.96,14.63-3.2,23.3-8.69,4.54-2.87,8.11-5.99,10.85-8.8ZM431.6,306.33c6.8,0,9,6,9,16.8,0,30-11.6,54.4-24,54.4-4.8,0-9.2-3.4-9.2-16,0-34.8,13-55.2,24.2-55.2ZM340.81,330.53h.2c0-.2,8.2-23.4,21.2-23.4,5.4,0,8,3.2,8,16,0,29.8-11,54.2-24,54.2-8.2,0-11.2-4.4-12.6-7.6l7.2-39.2ZM101.81,361.53c0-34.8,13-55.2,24.2-55.2,6.8,0,9,6,9,16.8,0,30-11.6,54.4-24,54.4-4.8,0-9.2-3.4-9.2-16ZM85.17,253.2c-17.4,0-32.4-8.1-32.4-19.2s10.5-17.7,27.6-17.7,28.2,8.1,39,18.3c-6.3,15.3-17.1,18.6-34.2,18.6ZM257.37,175.33c11.4,0,18.6,13.8,19.8,28.2-4.5,24.9-6.6,37.5-7.8,43.2-2.4,6.6-14.1,33.6-31.2,33.6-8.1,0-13.5-4.8-13.5-24,0-33.3,11.4-81,32.7-81ZM190.77,241.03c0,10.57,2.21,19.42,6.18,26.46-30.11-1.23-46.27-12.01-58.98-23.58,16.5-11.7,29.1-29.7,33.6-54.3v-.6c14.68-1.96,30.18-5.12,44.85-10.14-15.8,11.89-25.65,33.08-25.65,62.16ZM196.77,36c56.4.9,80.4,25.2,80.4,58.8,0,59.4-54.6,80.1-104.1,87.3,11.4-58.5,21.9-132.9,23.7-146.1ZM130.16,189.02c-.2,1.09-.4,2.19-.6,3.28l-1.8,11.1c-1.8,9.9-3.9,18-6,24.6-10.5-9.9-21.9-17.4-42-17.4-2.87,0-5.54.15-8.02.44,4.7-3.11,8.95-5.42,12.3-7.21,16.05-8.57,31.97-12.87,46.11-14.82Z"/>
  <path class="uuid-dbcbd5a1-3972-4a60-8688-778f5cf42256" d="M507.22,176.56c8.04-7.97,24.39-21.96,49.23-29.38,16.17-4.83,30.38-5.22,40.09-4.67-6.35-1.44-45.16-9.58-73.56,14.59-7.29,6.2-12.3,13.18-15.76,19.46Z"/>
  <path class="uuid-dbcbd5a1-3972-4a60-8688-778f5cf42256" d="M522.13,313.32c6.8-6.74,20.64-18.58,41.66-24.86,13.69-4.09,25.71-4.42,33.92-3.95-5.38-1.21-38.21-8.1-62.24,12.35-6.17,5.25-10.41,11.15-13.34,16.47Z"/>
</svg>